<?xml version="1.0" encoding="UTF-8"?>
<svg width="80" height="80" viewBox="0 0 80 80" fill="none" xmlns="http://www.w3.org/2000/svg">
  <rect width="80" height="80" rx="20" fill="url(#paint0_linear)"/>
  <path d="M40 20C28.954 20 20 28.954 20 40C20 51.046 28.954 60 40 60C51.046 60 60 51.046 60 40C60 28.954 51.046 20 40 20ZM40 56C31.163 56 24 48.837 24 40C24 31.163 31.163 24 40 24C48.837 24 56 31.163 56 40C56 48.837 48.837 56 40 56Z" fill="white"/>
  <path d="M40 28C34.477 28 30 32.477 30 38C30 43.523 34.477 48 40 48C45.523 48 50 43.523 50 38C50 32.477 45.523 28 40 28ZM40 44C36.686 44 34 41.314 34 38C34 34.686 36.686 32 40 32C43.314 32 46 34.686 46 38C46 41.314 43.314 44 40 44Z" fill="white"/>
  <defs>
    <linearGradient id="paint0_linear" x1="0" y1="0" x2="80" y2="80" gradientUnits="userSpaceOnUse">
      <stop stop-color="#8B5CF6"/>
      <stop offset="1" stop-color="#EC4899"/>
    </linearGradient>
  </defs>
</svg>